:FULLY-SPECIFIED
:FORCE-ALL-JOINTS-BE-3DOF
:DEGREES
34
root 5.98366 16.9004 -28.0767 9.98381 -1.85967 -2.26634
lfemur -20.0917 1.62948 -19.773
ltibia 33.7716 0 0
lfoot -36.0166 4.26286 0
ltoes 36.2062 0 0
rfemur -16.8092 7.35119 19.5674
rtibia 30.5678 0 0
rfoot -27.4038 -19.1081 0
rtoes 14.8804 0 0
lowerback -5.45132 2.55239 -0.990197
upperback -1.91342 3.44112 0.844034
thorax 0.972287 1.72588 1.62999
lowerneck -9.54922 -1.65177 2.6676
upperneck -2.59509 -2.46709 0.734476
head 0.756022 -1.23674 -0.301071
lclavicle -2.62815e-14 -3.37934e-15 0
lhumerus -41.5172 -12.7219 97.0781
lradius 38.759 0 0
lwrist 5.65684 0 0
lhand -11.2797 5.79832 0
lfingers 7.12502 0 0
lthumb 14.7509 35.2531 0
rclavicle -2.62815e-14 -3.37934e-15 0
rhumerus -40.6433 -5.08353 -88.6508
rradius 39.1398 0 0
rwrist 11.0918 0 0
rhand -26.8347 -19.9468 0
rfingers 7.12502 0 0
rthumb -0.260423 -49.9264 0
35
root 5.97635 16.901 -28.0772 10.0007 -1.85529 -2.22091
lfemur -20.0959 1.63559 -19.7933
ltibia 33.7415 0 0
lfoot -35.929 4.26424 0
ltoes 36.0368 0 0
rfemur -16.809 7.34421 19.5423
rtibia 30.54 0 0
rfoot -27.3448 -19.1416 0
rtoes 14.5844 0 0
lowerback -5.50148 2.5315 -0.914179
upperback -1.88704 3.41056 0.759482
thorax 1.03814 1.70932 1.5027
lowerneck -9.53522 -1.63282 2.70528
upperneck -2.65289 -2.44489 0.793754
head 0.735698 -1.22571 -0.28753
lclavicle -1.66679e-14 -2.36885e-15 0
lhumerus -41.5018 -12.7899 97.0274
lradius 38.9823 0 0
lwrist 5.81241 0 0
lhand -11.4031 5.50631 0
lfingers 7.12502 0 0
lthumb 14.6321 34.9698 0
rclavicle -1.66679e-14 -2.36885e-15 0
rhumerus -40.5739 -5.07832 -88.7755
rradius 39.088 0 0
rwrist 11.1348 0 0
rhand -26.8189 -19.9408 0
rfingers 7.12502 0 0
rthumb -0.245192 -49.9204 0
36
root 5.96905 16.9017 -28.0778 10.0177 -1.85091 -2.17548
lfemur -20.1 1.6417 -19.8136
ltibia 33.7115 0 0
lfoot -35.8414 4.26562 0
ltoes 35.8674 0 0
rfemur -16.8089 7.33723 19.5173
rtibia 30.5122 0 0
rfoot -27.2858 -19.1751 0
rtoes 14.2885 0 0
lowerback -5.55163 2.51061 -0.838161
upperback -1.86066 3.38001 0.67493
thorax 1.104 1.69277 1.37541
lowerneck -9.52122 -1.61388 2.74295
upperneck -2.7107 -2.42269 0.853033
head 0.715373 -1.21467 -0.273989
lclavicle -7.05427e-15 -1.35836e-15 0
lhumerus -41.4864 -12.8579 96.9766
lradius 39.2055 0 0
lwrist 5.96797 0 0
lhand -11.5265 5.21431 0
lfingers 7.12502 0 0
lthumb 14.5132 34.6865 0
rclavicle -7.05427e-15 -1.35836e-15 0
rhumerus -40.5046 -5.07311 -88.9003
rradius 39.0361 0 0
rwrist 11.1779 0 0
rhand -26.8032 -19.9348 0
rfingers 7.12502 0 0
rthumb -0.229962 -49.9145 0
37
root 5.96174 16.9023 -28.0784 10.0346 -1.84653 -2.13005
lfemur -20.1041 1.64782 -19.8339
ltibia 33.6814 0 0
lfoot -35.7538 4.26699 0
ltoes 35.698 0 0
rfemur -16.8087 7.33026 19.4922
rtibia 30.4844 0 0
rfoot -27.2268 -19.2086 0
rtoes 13.9925 0 0
lowerback -5.60179 2.48972 -0.762143
upperback -1.83428 3.34945 0.590378
thorax 1.16985 1.67621 1.24812
lowerneck -9.50721 -1.59494 2.78063
upperneck -2.76851 -2.40049 0.912311
head 0.695049 -1.20363 -0.260448
lclavicle 2.55935e-15 -3.47873e-16 0
lhumerus -41.471 -12.9259 96.9258
lradius 39.4288 0 0
lwrist 6.12354 0 0
lhand -11.6499 4.9223 0
lfingers 7.12502 0 0
lthumb 14.3944 34.4032 0
rclavicle 2.55935e-15 -3.47873e-16 0
rhumerus -40.4352 -5.0679 -89.025
rradius 38.9843 0 0
rwrist 11.2209 0 0
rhand -26.7874 -19.9288 0
rfingers 7.12502 0 0
rthumb -0.214731 -49.9085 0
38
root 5.9548 16.9017 -28.0795 10.0633 -1.79348 -2.1043
lfemur -20.1597 1.59635 -19.8293
ltibia 33.7178 0 0
lfoot -35.6634 4.25667 0
ltoes 35.6165 0 0
rfemur -16.8281 7.13616 19.4878
rtibia 30.4666 0 0
rfoot -27.2126 -19.1184 0
rtoes 13.4157 0 0
lowerback -5.63247 2.45387 -0.652461
upperback -1.81715 3.29698 0.504731
thorax 1.21629 1.6495 1.09785
lowerneck -9.50715 -1.58171 2.81316
upperneck -2.80814 -2.38575 0.971898
head 0.682865 -1.19619 -0.246621
lclavicle 1.70209e-15 7.37159e-16 0
lhumerus -41.4602 -12.9623 96.8306
lradius 39.5981 0 0
lwrist 6.22254 0 0
lhand -11.687 4.6616 0
lfingers 7.12502 0 0
lthumb 14.3586 34.145 0
rclavicle 1.70209e-15 7.37159e-16 0
rhumerus -40.3933 -5.05825 -89.1684
rradius 38.978 0 0
rwrist 11.1564 0 0
rhand -26.7711 -20.0086 0
rfingers 7.12502 0 0
rthumb -0.19895 -49.9883 0
39
root 5.94787 16.9011 -28.0805 10.0919 -1.74044 -2.07855
lfemur -20.2154 1.54488 -19.8248
ltibia 33.7543 0 0
lfoot -35.5731 4.24636 0
ltoes 35.5349 0 0
rfemur -16.8476 6.94206 19.4833
rtibia 30.4489 0 0
rfoot -27.1984 -19.0282 0
rtoes 12.8389 0 0
lowerback -5.66315 2.41801 -0.542779
upperback -1.80002 3.24452 0.419084
thorax 1.26273 1.62279 0.947578
lowerneck -9.50708 -1.56847 2.8457
upperneck -2.84777 -2.371 1.03148
head 0.670681 -1.18875 -0.232793
lclavicle 8.44833e-16 1.82219e-15 0
lhumerus -41.4494 -12.9987 96.7355
lradius 39.7675 0 0
lwrist 6.32154 0 0
lhand -11.7241 4.40089 0
lfingers 7.12502 0 0
lthumb 14.3229 33.8868 0
rclavicle 8.44833e-16 1.82219e-15 0
rhumerus -40.3513 -5.04859 -89.3118
rradius 38.9718 0 0
rwrist 11.0918 0 0
rhand -26.7547 -20.0883 0
rfingers 7.12502 0 0
rthumb -0.183168 -50.068 0
